{
  "accessors": [
    {
      "bufferView": 2,
      "componentType": 5126,
      "count": 8269,
      "max": [
        -5.193700790405273,
        0.9891260266304016,
        4.684508800506592
      ],
      "min": [
        -7.692001819610596,
        -0.9891260266304016,
        -0.044523999094963074
      ],
      "type": "VEC3"
    },
    {
      "bufferView": 2,
      "byteOffset": 99228,
      "componentType": 5126,
      "count": 8269,
      "max": [
        1.0,
        1.0,
        1.0
      ],
      "min": [
        -1.0,
        -1.0,
        -1.0
      ],
      "type": "VEC3"
    },
    {
      "bufferView": 3,
      "componentType": 5126,
      "count": 8269,
      "max": [
        1.0,
        1.0,
        0.9997207522392273,
        1.0
      ],
      "min": [
        -1.0,
        -1.0,
        -1.0,
        -1.0
      ],
      "type": "VEC4"
    },
    {
      "bufferView": 1,
      "componentType": 5126,
      "count": 8269,
      "max": [
        0.9752770066261292,
        0.9904189705848694
      ],
      "min": [
        0.019626999273896217,
        0.0161569993942976
      ],
      "type": "VEC2"
    },
    {
      "bufferView": 0,
      "componentType": 5125,
      "count": 40641,
      "type": "SCALAR"
    },
    {
      "bufferView": 2,
      "byteOffset": 198456,
      "componentType": 5126,
      "count": 9735,
      "max": [
        -2.9909229278564453,
        -0.26870599389076233,
        4.883053779602051
      ],
      "min": [
        -4.753901958465576,
        -2.1120851039886475,
        -0.0011500000255182385
      ],
      "type": "VEC3"
    },
    {
      "bufferView": 2,
      "byteOffset": 315276,
      "componentType": 5126,
      "count": 9735,
      "max": [
        1.0,
        1.0,
        1.0
      ],
      "min": [
        -1.0,
        -1.0,
        -1.0
      ],
      "type": "VEC3"
    },
    {
      "bufferView": 3,
      "byteOffset": 132304,
      "componentType": 5126,
      "count": 9735,
      "max": [
        1.0,
        1.0,
        1.0,
        1.0
      ],
      "min": [
        -1.0,
        -1.0,
        -0.9980235695838928,
        -1.0
      ],
      "type": "VEC4"
    },
    {
      "bufferView": 1,
      "byteOffset": 66152,
      "componentType": 5126,
      "count": 9735,
      "max": [
        0.9692869782447815,
        0.9857050180435181
      ],
      "min": [
        0.024661999195814133,
        0.01962899975478649
      ],
      "type": "VEC2"
    },
    {
      "bufferView": 0,
      "byteOffset": 162564,
      "componentType": 5125,
      "count": 49146,
      "type": "SCALAR"
    },
    {
      "bufferView": 2,
      "byteOffset": 432096,
      "componentType": 5126,
      "count": 9735,
      "max": [
        0.009077000431716442,
        -0.26870599389076233,
        4.883053779602051
      ],
      "min": [
        -1.7539019584655762,
        -2.1120851039886475,
        -0.0011500000255182385
      ],
      "type": "VEC3"
    },
    {
      "bufferView": 2,
      "byteOffset": 548916,
      "componentType": 5126,
      "count": 9735,
      "max": [
        1.0,
        1.0,
        1.0
      ],
      "min": [
        -1.0,
        -1.0,
        -1.0
      ],
      "type": "VEC3"
    },
    {
      "bufferView": 3,
      "byteOffset": 288064,
      "componentType": 5126,
      "count": 9735,
      "max": [
        1.0,
        1.0,
        1.0,
        1.0
      ],
      "min": [
        -1.0,
        -1.0,
        -0.9980233311653137,
        -1.0
      ],
      "type": "VEC4"
    },
    {
      "bufferView": 1,
      "byteOffset": 144032,
      "componentType": 5126,
      "count": 9735,
      "max": [
        0.9692869782447815,
        0.9857050180435181
      ],
      "min": [
        0.024661999195814133,
        0.01962899975478649
      ],
      "type": "VEC2"
    },
    {
      "bufferView": 0,
      "byteOffset": 359148,
      "componentType": 5125,
      "count": 49146,
      "type": "SCALAR"
    },
    {
      "bufferView": 2,
      "byteOffset": 665736,
      "componentType": 5126,
      "count": 9735,
      "max": [
        3.0090770721435547,
        -0.26870599389076233,
        4.883053779602051
      ],
      "min": [
        1.2460980415344238,
        -2.1120851039886475,
        -0.0011500000255182385
      ],
      "type": "VEC3"
    },
    {
      "bufferView": 2,
      "byteOffset": 782556,
      "componentType": 5126,
      "count": 9735,
      "max": [
        1.0,
        1.0,
        1.0
      ],
      "min": [
        -1.0,
        -1.0,
        -1.0
      ],
      "type": "VEC3"
    },
    {
      "bufferView": 3,
      "byteOffset": 443824,
      "componentType": 5126,
      "count": 9735,
      "max": [
        1.0,
        1.0,
        1.0,
        1.0
      ],
      "min": [
        -1.0,
        -1.0,
        -0.9980233311653137,
        -1.0
      ],
      "type": "VEC4"
    },
    {
      "bufferView": 1,
      "byteOffset": 221912,
      "componentType": 5126,
      "count": 9735,
      "max": [
        0.9692869782447815,
        0.9857050180435181
      ],
      "min": [
        0.024661999195814133,
        0.01962899975478649
      ],
      "type": "VEC2"
    },
    {
      "bufferView": 0,
      "byteOffset": 555732,
      "componentType": 5125,
      "count": 49146,
      "type": "SCALAR"
    },
    {
      "bufferView": 2,
      "byteOffset": 899376,
      "componentType": 5126,
      "count": 9733,
      "max": [
        6.009077072143555,
        -0.26870599389076233,
        4.883053779602051
      ],
      "min": [
        4.246098041534424,
        -2.1120851039886475,
        -0.0011500000255182385
      ],
      "type": "VEC3"
    },
    {
      "bufferView": 2,
      "byteOffset": 1016172,
      "componentType": 5126,
      "count": 9733,
      "max": [
        1.0,
        1.0,
        1.0
      ],
      "min": [
        -1.0,
        -1.0,
        -1.0
      ],
      "type": "VEC3"
    },
    {
      "bufferView": 3,
      "byteOffset": 599584,
      "componentType": 5126,
      "count": 9733,
      "max": [
        1.0,
        1.0,
        1.0,
        1.0
      ],
      "min": [
        -1.0,
        -1.0,
        -0.9980235695838928,
        -1.0
      ],
      "type": "VEC4"
    },
    {
      "bufferView": 1,
      "byteOffset": 299792,
      "componentType": 5126,
      "count": 9733,
      "max": [
        0.9692869782447815,
        0.9857050180435181
      ],
      "min": [
        0.024661999195814133,
        0.01962899975478649
      ],
      "type": "VEC2"
    },
    {
      "bufferView": 0,
      "byteOffset": 752316,
      "componentType": 5125,
      "count": 49146,
      "type": "SCALAR"
    },
    {
      "bufferView": 2,
      "byteOffset": 1132968,
      "componentType": 5126,
      "count": 9733,
      "max": [
        -2.9909229278564453,
        2.0600409507751465,
        4.883053779602051
      ],
      "min": [
        -4.753901958465576,
        0.21666200459003448,
        -0.0011500000255182385
      ],
      "type": "VEC3"
    },
    {
      "bufferView": 2,
      "byteOffset": 1249764,
      "componentType": 5126,
      "count": 9733,
      "max": [
        1.0,
        1.0,
        1.0
      ],
      "min": [
        -1.0,
        -1.0,
        -1.0
      ],
      "type": "VEC3"
    },
    {
      "bufferView": 3,
      "byteOffset": 755312,
      "componentType": 5126,
      "count": 9733,
      "max": [
        1.0,
        1.0,
        1.0,
        1.0
      ],
      "min": [
        -1.0,
        -1.0,
        -0.9978867769241333,
        -1.0
      ],
      "type": "VEC4"
    },
    {
      "bufferView": 1,
      "byteOffset": 377656,
      "componentType": 5126,
      "count": 9733,
      "max": [
        0.9692869782447815,
        0.9857050180435181
      ],
      "min": [
        0.024661999195814133,
        0.01962899975478649
      ],
      "type": "VEC2"
    },
    {
      "bufferView": 0,
      "byteOffset": 948900,
      "componentType": 5125,
      "count": 49146,
      "type": "SCALAR"
    },
    {
      "bufferView": 2,
      "byteOffset": 1366560,
      "componentType": 5126,
      "count": 9733,
      "max": [
        0.009077000431716442,
        2.0600409507751465,
        4.883053779602051
      ],
      "min": [
        -1.7539019584655762,
        0.21666200459003448,
        -0.0011500000255182385
      ],
      "type": "VEC3"
    },
    {
      "bufferView": 2,
      "byteOffset": 1483356,
      "componentType": 5126,
      "count": 9733,
      "max": [
        1.0,
        1.0,
        1.0
      ],
      "min": [
        -1.0,
        -1.0,
        -1.0
      ],
      "type": "VEC3"
    },
    {
      "bufferView": 3,
      "byteOffset": 911040,
      "componentType": 5126,
      "count": 9733,
      "max": [
        1.0,
        1.0,
        1.0,
        1.0
      ],
      "min": [
        -1.0,
        -1.0,
        -0.9978869557380676,
        -1.0
      ],
      "type": "VEC4"
    },
    {
      "bufferView": 1,
      "byteOffset": 455520,
      "componentType": 5126,
      "count": 9733,
      "max": [
        0.9692869782447815,
        0.9857050180435181
      ],
      "min": [
        0.024661999195814133,
        0.01962899975478649
      ],
      "type": "VEC2"
    },
    {
      "bufferView": 0,
      "byteOffset": 1145484,
      "componentType": 5125,
      "count": 49146,
      "type": "SCALAR"
    },
    {
      "bufferView": 2,
      "byteOffset": 1600152,
      "componentType": 5126,
      "count": 9735,
      "max": [
        3.0090770721435547,
        2.0600409507751465,
        4.883053779602051
      ],
      "min": [
        1.2460980415344238,
        0.21666200459003448,
        -0.0011500000255182385
      ],
      "type": "VEC3"
    },
    {
      "bufferView": 2,
      "byteOffset": 1716972,
      "componentType": 5126,
      "count": 9735,
      "max": [
        1.0,
        1.0,
        1.0
      ],
      "min": [
        -1.0,
        -1.0,
        -1.0
      ],
      "type": "VEC3"
    },
    {
      "bufferView": 3,
      "byteOffset": 1066768,
      "componentType": 5126,
      "count": 9735,
      "max": [
        1.0,
        1.0,
        1.0,
        1.0
      ],
      "min": [
        -1.0,
        -1.0,
        -0.9978867769241333,
        -1.0
      ],
      "type": "VEC4"
    },
    {
      "bufferView": 1,
      "byteOffset": 533384,
      "componentType": 5126,
      "count": 9735,
      "max": [
        0.9692869782447815,
        0.9857050180435181
      ],
      "min": [
        0.024661999195814133,
        0.01962899975478649
      ],
      "type": "VEC2"
    },
    {
      "bufferView": 0,
      "byteOffset": 1342068,
      "componentType": 5125,
      "count": 49146,
      "type": "SCALAR"
    },
    {
      "bufferView": 2,
      "byteOffset": 1833792,
      "componentType": 5126,
      "count": 9735,
      "max": [
        6.009077072143555,
        2.0600409507751465,
        4.883053779602051
      ],
      "min": [
        4.246098041534424,
        0.21666200459003448,
        -0.0011500000255182385
      ],
      "type": "VEC3"
    },
    {
      "bufferView": 2,
      "byteOffset": 1950612,
      "componentType": 5126,
      "count": 9735,
      "max": [
        1.0,
        1.0,
        1.0
      ],
      "min": [
        -1.0,
        -1.0,
        -1.0
      ],
      "type": "VEC3"
    },
    {
      "bufferView": 3,
      "byteOffset": 1222528,
      "componentType": 5126,
      "count": 9735,
      "max": [
        1.0,
        1.0,
        1.0,
        1.0
      ],
      "min": [
        -1.0,
        -1.0,
        -0.9978871941566467,
        -1.0
      ],
      "type": "VEC4"
    },
    {
      "bufferView": 1,
      "byteOffset": 611264,
      "componentType": 5126,
      "count": 9735,
      "max": [
        0.9692869782447815,
        0.9857050180435181
      ],
      "min": [
        0.024661999195814133,
        0.01962899975478649
      ],
      "type": "VEC2"
    },
    {
      "bufferView": 0,
      "byteOffset": 1538652,
      "componentType": 5125,
      "count": 49146,
      "type": "SCALAR"
    }
  ],
  "asset": {
    "extras": {
      "author": "Hrvoje Wächter (https://sketchfab.com/gazdahrco)",
      "license": "CC-BY-4.0 (http://creativecommons.org/licenses/by/4.0/)",
      "source": "https://sketchfab.com/3d-models/old-arcade-cabinets-fc863ca4e3f94b4c8729f091e36238cf",
      "title": "Old Arcade Cabinets"
    },
    "generator": "Sketchfab-12.67.0",
    "version": "2.0"
  },
  "bufferViews": [
    {
      "buffer": 0,
      "byteLength": 1735236,
      "name": "floatBufferViews",
      "target": 34963
    },
    {
      "buffer": 0,
      "byteLength": 689144,
      "byteOffset": 1735236,
      "byteStride": 8,
      "name": "floatBufferViews",
      "target": 34962
    },
    {
      "buffer": 0,
      "byteLength": 2067432,
      "byteOffset": 2424380,
      "byteStride": 12,
      "name": "floatBufferViews",
      "target": 34962
    },
    {
      "buffer": 0,
      "byteLength": 1378288,
      "byteOffset": 4491812,
      "byteStride": 16,
      "name": "floatBufferViews",
      "target": 34962
    }
  ],
  "buffers": [
    {
      "byteLength": 5870100,
      "uri": "scene.bin"
    }
  ],
  "images": [
    {
      "uri": "textures/ArcadeMachineDirt_baseColor.png"
    },
    {
      "uri": "textures/ArcadeMachineDirt_metallicRoughness.png"
    },
    {
      "uri": "textures/ArcadeMachineDirt_normal.png"
    },
    {
      "uri": "textures/Blender_baseColor.png"
    },
    {
      "uri": "textures/Blender_metallicRoughness.png"
    },
    {
      "uri": "textures/Blender_normal.png"
    },
    {
      "uri": "textures/Defender_baseColor.png"
    },
    {
      "uri": "textures/Defender_metallicRoughness.png"
    },
    {
      "uri": "textures/Defender_normal.png"
    },
    {
      "uri": "textures/Galaxian_baseColor.png"
    },
    {
      "uri": "textures/Galaxian_metallicRoughness.png"
    },
    {
      "uri": "textures/Galaxian_normal.png"
    },
    {
      "uri": "textures/Missle_baseColor.png"
    },
    {
      "uri": "textures/Missle_metallicRoughness.png"
    },
    {
      "uri": "textures/Missle_normal.png"
    },
    {
      "uri": "textures/Multi_baseColor.png"
    },
    {
      "uri": "textures/Multi_metallicRoughness.png"
    },
    {
      "uri": "textures/Multi_normal.png"
    },
    {
      "uri": "textures/PacMan_baseColor.png"
    },
    {
      "uri": "textures/Street_baseColor.png"
    },
    {
      "uri": "textures/Tron_baseColor.png"
    }
  ],
  "materials": [
    {
      "doubleSided": true,
      "name": "ArcadeMachineDirt",
      "normalTexture": {
        "index": 2
      },
      "pbrMetallicRoughness": {
        "baseColorTexture": {
          "index": 0
        },
        "metallicRoughnessTexture": {
          "index": 1
        }
      }
    },
    {
      "doubleSided": true,
      "name": "Blender",
      "normalTexture": {
        "index": 5
      },
      "pbrMetallicRoughness": {
        "baseColorTexture": {
          "index": 3
        },
        "metallicRoughnessTexture": {
          "index": 4
        }
      }
    },
    {
      "doubleSided": true,
      "name": "Defender",
      "normalTexture": {
        "index": 8
      },
      "pbrMetallicRoughness": {
        "baseColorTexture": {
          "index": 6
        },
        "metallicRoughnessTexture": {
          "index": 7
        }
      }
    },
    {
      "doubleSided": true,
      "name": "Galaxian",
      "normalTexture": {
        "index": 11
      },
      "pbrMetallicRoughness": {
        "baseColorTexture": {
          "index": 9
        },
        "metallicRoughnessTexture": {
          "index": 10
        }
      }
    },
    {
      "doubleSided": true,
      "name": "Missle",
      "normalTexture": {
        "index": 14
      },
      "pbrMetallicRoughness": {
        "baseColorTexture": {
          "index": 12
        },
        "metallicRoughnessTexture": {
          "index": 13
        }
      }
    },
    {
      "doubleSided": true,
      "name": "Multi",
      "normalTexture": {
        "index": 17
      },
      "pbrMetallicRoughness": {
        "baseColorTexture": {
          "index": 15
        },
        "metallicRoughnessTexture": {
          "index": 16
        }
      }
    },
    {
      "doubleSided": true,
      "name": "PacMan",
      "normalTexture": {
        "index": 17
      },
      "pbrMetallicRoughness": {
        "baseColorTexture": {
          "index": 18
        },
        "metallicRoughnessTexture": {
          "index": 16
        }
      }
    },
    {
      "doubleSided": true,
      "name": "Street",
      "normalTexture": {
        "index": 17
      },
      "pbrMetallicRoughness": {
        "baseColorTexture": {
          "index": 19
        },
        "metallicRoughnessTexture": {
          "index": 16
        }
      }
    },
    {
      "doubleSided": true,
      "name": "Tron",
      "normalTexture": {
        "index": 17
      },
      "pbrMetallicRoughness": {
        "baseColorTexture": {
          "index": 20
        },
        "metallicRoughnessTexture": {
          "index": 16
        }
      }
    }
  ],
  "meshes": [
    {
      "name": "Object_0",
      "primitives": [
        {
          "attributes": {
            "NORMAL": 1,
            "POSITION": 0,
            "TANGENT": 2,
            "TEXCOORD_0": 3
          },
          "indices": 4,
          "material": 0,
          "mode": 4
        }
      ]
    },
    {
      "name": "Object_1",
      "primitives": [
        {
          "attributes": {
            "NORMAL": 6,
            "POSITION": 5,
            "TANGENT": 7,
            "TEXCOORD_0": 8
          },
          "indices": 9,
          "material": 1,
          "mode": 4
        }
      ]
    },
    {
      "name": "Object_2",
      "primitives": [
        {
          "attributes": {
            "NORMAL": 11,
            "POSITION": 10,
            "TANGENT": 12,
            "TEXCOORD_0": 13
          },
          "indices": 14,
          "material": 2,
          "mode": 4
        }
      ]
    },
    {
      "name": "Object_3",
      "primitives": [
        {
          "attributes": {
            "NORMAL": 16,
            "POSITION": 15,
            "TANGENT": 17,
            "TEXCOORD_0": 18
          },
          "indices": 19,
          "material": 3,
          "mode": 4
        }
      ]
    },
    {
      "name": "Object_4",
      "primitives": [
        {
          "attributes": {
            "NORMAL": 21,
            "POSITION": 20,
            "TANGENT": 22,
            "TEXCOORD_0": 23
          },
          "indices": 24,
          "material": 4,
          "mode": 4
        }
      ]
    },
    {
      "name": "Object_5",
      "primitives": [
        {
          "attributes": {
            "NORMAL": 26,
            "POSITION": 25,
            "TANGENT": 27,
            "TEXCOORD_0": 28
          },
          "indices": 29,
          "material": 5,
          "mode": 4
        }
      ]
    },
    {
      "name": "Object_6",
      "primitives": [
        {
          "attributes": {
            "NORMAL": 31,
            "POSITION": 30,
            "TANGENT": 32,
            "TEXCOORD_0": 33
          },
          "indices": 34,
          "material": 6,
          "mode": 4
        }
      ]
    },
    {
      "name": "Object_7",
      "primitives": [
        {
          "attributes": {
            "NORMAL": 36,
            "POSITION": 35,
            "TANGENT": 37,
            "TEXCOORD_0": 38
          },
          "indices": 39,
          "material": 7,
          "mode": 4
        }
      ]
    },
    {
      "name": "Object_8",
      "primitives": [
        {
          "attributes": {
            "NORMAL": 41,
            "POSITION": 40,
            "TANGENT": 42,
            "TEXCOORD_0": 43
          },
          "indices": 44,
          "material": 8,
          "mode": 4
        }
      ]
    }
  ],
  "nodes": [
    {
      "children": [
        1
      ],
      "matrix": [
        1.0,
        0.0,
        0.0,
        0.0,
        0.0,
        2.220446049250313e-16,
        -1.0,
        0.0,
        0.0,
        1.0,
        2.220446049250313e-16,
        0.0,
        0.0,
        0.0,
        0.0,
        1.0
      ],
      "name": "Sketchfab_model"
    },
    {
      "children": [
        2,
        3,
        4,
        5,
        6,
        7,
        8,
        9,
        10
      ],
      "name": "Arcade cabins.obj.cleaner.materialmerger.gles"
    },
    {
      "mesh": 0,
      "name": "Object_2"
    },
    {
      "mesh": 1,
      "name": "Object_3"
    },
    {
      "mesh": 2,
      "name": "Object_4"
    },
    {
      "mesh": 3,
      "name": "Object_5"
    },
    {
      "mesh": 4,
      "name": "Object_6"
    },
    {
      "mesh": 5,
      "name": "Object_7"
    },
    {
      "mesh": 6,
      "name": "Object_8"
    },
    {
      "mesh": 7,
      "name": "Object_9"
    },
    {
      "mesh": 8,
      "name": "Object_10"
    }
  ],
  "samplers": [
    {
      "magFilter": 9729,
      "minFilter": 9987,
      "wrapS": 10497,
      "wrapT": 10497
    }
  ],
  "scene": 0,
  "scenes": [
    {
      "name": "Sketchfab_Scene",
      "nodes": [
        0
      ]
    }
  ],
  "textures": [
    {
      "sampler": 0,
      "source": 0
    },
    {
      "sampler": 0,
      "source": 1
    },
    {
      "sampler": 0,
      "source": 2
    },
    {
      "sampler": 0,
      "source": 3
    },
    {
      "sampler": 0,
      "source": 4
    },
    {
      "sampler": 0,
      "source": 5
    },
    {
      "sampler": 0,
      "source": 6
    },
    {
      "sampler": 0,
      "source": 7
    },
    {
      "sampler": 0,
      "source": 8
    },
    {
      "sampler": 0,
      "source": 9
    },
    {
      "sampler": 0,
      "source": 10
    },
    {
      "sampler": 0,
      "source": 11
    },
    {
      "sampler": 0,
      "source": 12
    },
    {
      "sampler": 0,
      "source": 13
    },
    {
      "sampler": 0,
      "source": 14
    },
    {
      "sampler": 0,
      "source": 15
    },
    {
      "sampler": 0,
      "source": 16
    },
    {
      "sampler": 0,
      "source": 17
    },
    {
      "sampler": 0,
      "source": 18
    },
    {
      "sampler": 0,
      "source": 19
    },
    {
      "sampler": 0,
      "source": 20
    }
  ]
}
