{
  "accessors": [
    {
      "bufferView": 2,
      "componentType": 5126,
      "count": 1755,
      "max": [
        0.5047345757484436,
        0.032948676496744156,
        0.6001454591751099
      ],
      "min": [
        -0.05524677783250809,
        -0.032948676496744156,
        -0.08999999612569809
      ],
      "type": "VEC3"
    },
    {
      "bufferView": 2,
      "byteOffset": 21060,
      "componentType": 5126,
      "count": 1755,
      "max": [
        0.991463303565979,
        0.998543381690979,
        0.9999324679374695
      ],
      "min": [
        -0.991463303565979,
        -0.9914600849151611,
        -0.9830635786056519
      ],
      "type": "VEC3"
    },
    {
      "bufferView": 1,
      "componentType": 5126,
      "count": 1755,
      "max": [
        0.9994894862174988,
        0.7655521631240845
      ],
      "min": [
        0.0005104564479552209,
        0.0005104564479552209
      ],
      "type": "VEC2"
    },
    {
      "bufferView": 0,
      "componentType": 5125,
      "count": 5760,
      "type": "SCALAR"
    },
    {
      "bufferView": 2,
      "byteOffset": 42120,
      "componentType": 5126,
      "count": 936,
      "max": [
        0.3923625946044922,
        0.2589765787124634,
        0.09072547405958176
      ],
      "min": [
        -0.05524677783250809,
        -0.032948676496744156,
        -0.08999999612569809
      ],
      "type": "VEC3"
    },
    {
      "bufferView": 2,
      "byteOffset": 53352,
      "componentType": 5126,
      "count": 936,
      "max": [
        0.9914638996124268,
        0.998544454574585,
        0.9999324679374695
      ],
      "min": [
        -0.9914638996124268,
        -0.9914619326591492,
        -0.9830640554428101
      ],
      "type": "VEC3"
    },
    {
      "bufferView": 1,
      "byteOffset": 14040,
      "componentType": 5126,
      "count": 936,
      "max": [
        0.9994894862174988,
        0.7655521631240845
      ],
      "min": [
        0.0005104564479552209,
        0.0005104564479552209
      ],
      "type": "VEC2"
    },
    {
      "bufferView": 0,
      "byteOffset": 23040,
      "componentType": 5125,
      "count": 3072,
      "type": "SCALAR"
    },
    {
      "bufferView": 2,
      "byteOffset": 64584,
      "componentType": 5126,
      "count": 5593,
      "max": [
        0.42592135071754456,
        0.4376308023929596,
        2.191862106323242
      ],
      "min": [
        -0.42592135071754456,
        -0.4376308023929596,
        0.0
      ],
      "type": "VEC3"
    },
    {
      "bufferView": 2,
      "byteOffset": 131700,
      "componentType": 5126,
      "count": 5593,
      "max": [
        1.0,
        1.0,
        1.0
      ],
      "min": [
        -1.0,
        -1.0,
        -1.0
      ],
      "type": "VEC3"
    },
    {
      "bufferView": 3,
      "componentType": 5126,
      "count": 5593,
      "max": [
        1.0,
        1.0,
        1.0,
        1.0
      ],
      "min": [
        -1.0,
        -1.0,
        -0.9991573691368103,
        -1.0
      ],
      "type": "VEC4"
    },
    {
      "bufferView": 1,
      "byteOffset": 21528,
      "componentType": 5126,
      "count": 5593,
      "max": [
        0.9895103573799133,
        0.9999999403953552
      ],
      "min": [
        6.185802340041846e-05,
        0.00019086267275270075
      ],
      "type": "VEC2"
    },
    {
      "bufferView": 1,
      "byteOffset": 66272,
      "componentType": 5126,
      "count": 5593,
      "max": [
        0.9895103573799133,
        0.9999999403953552
      ],
      "min": [
        6.185802340041846e-05,
        0.00019086267275270075
      ],
      "type": "VEC2"
    },
    {
      "bufferView": 1,
      "byteOffset": 111016,
      "componentType": 5126,
      "count": 5593,
      "max": [
        0.9895103573799133,
        0.9999999403953552
      ],
      "min": [
        6.185802340041846e-05,
        0.00019086267275270075
      ],
      "type": "VEC2"
    },
    {
      "bufferView": 1,
      "byteOffset": 155760,
      "componentType": 5126,
      "count": 5593,
      "max": [
        0.9895103573799133,
        0.9999999403953552
      ],
      "min": [
        6.185802340041846e-05,
        0.00019086267275270075
      ],
      "type": "VEC2"
    },
    {
      "bufferView": 0,
      "byteOffset": 35328,
      "componentType": 5125,
      "count": 20430,
      "type": "SCALAR"
    },
    {
      "bufferView": 2,
      "byteOffset": 198816,
      "componentType": 5126,
      "count": 12,
      "max": [
        0.4192061126232147,
        0.35802504420280457,
        1.9104540348052979
      ],
      "min": [
        -0.4192061126232147,
        -0.2871134579181671,
        0.8852269053459167
      ],
      "type": "VEC3"
    },
    {
      "bufferView": 2,
      "byteOffset": 198960,
      "componentType": 5126,
      "count": 12,
      "max": [
        1.0,
        0.0,
        0.0
      ],
      "min": [
        -1.0,
        -1.0,
        0.0
      ],
      "type": "VEC3"
    },
    {
      "bufferView": 3,
      "byteOffset": 89488,
      "componentType": 5126,
      "count": 12,
      "max": [
        1.0,
        1.0,
        7.566670490177785e-08,
        1.0
      ],
      "min": [
        0.0,
        -1.0,
        -9.833529190927948e-08,
        1.0
      ],
      "type": "VEC4"
    },
    {
      "bufferView": 1,
      "byteOffset": 200504,
      "componentType": 5126,
      "count": 12,
      "max": [
        1.0,
        0.48162370920181274
      ],
      "min": [
        0.0,
        2.980232594040899e-08
      ],
      "type": "VEC2"
    },
    {
      "bufferView": 1,
      "byteOffset": 200600,
      "componentType": 5126,
      "count": 12,
      "max": [
        1.0,
        0.48162370920181274
      ],
      "min": [
        0.0,
        2.980232594040899e-08
      ],
      "type": "VEC2"
    },
    {
      "bufferView": 1,
      "byteOffset": 200696,
      "componentType": 5126,
      "count": 12,
      "max": [
        1.0,
        0.48162370920181274
      ],
      "min": [
        0.0,
        2.980232594040899e-08
      ],
      "type": "VEC2"
    },
    {
      "bufferView": 0,
      "byteOffset": 117048,
      "componentType": 5125,
      "count": 18,
      "type": "SCALAR"
    }
  ],
  "asset": {
    "extras": {
      "author": "Shorty_Digitan (https://sketchfab.com/Shorty_Digitan)",
      "license": "CC-BY-4.0 (http://creativecommons.org/licenses/by/4.0/)",
      "source": "https://sketchfab.com/3d-models/claw-machine-be864ad5a9e04b1f8bc31cad1f973193",
      "title": "Claw Machine"
    },
    "generator": "Sketchfab-16.87.0",
    "version": "2.0"
  },
  "bufferViews": [
    {
      "buffer": 0,
      "byteLength": 117120,
      "name": "floatBufferViews",
      "target": 34963
    },
    {
      "buffer": 0,
      "byteLength": 200792,
      "byteOffset": 117120,
      "byteStride": 8,
      "name": "floatBufferViews",
      "target": 34962
    },
    {
      "buffer": 0,
      "byteLength": 199104,
      "byteOffset": 317912,
      "byteStride": 12,
      "name": "floatBufferViews",
      "target": 34962
    },
    {
      "buffer": 0,
      "byteLength": 89680,
      "byteOffset": 517016,
      "byteStride": 16,
      "name": "floatBufferViews",
      "target": 34962
    }
  ],
  "buffers": [
    {
      "byteLength": 606696,
      "uri": "scene.bin"
    }
  ],
  "images": [
    {
      "uri": "textures/FigureBox_baseColor.png"
    },
    {
      "uri": "textures/claw_machine_01_baseColor.png"
    },
    {
      "uri": "textures/claw_machine_01_metallicRoughness.png"
    },
    {
      "uri": "textures/claw_machine_01_emissive.png"
    },
    {
      "uri": "textures/claw_machine_01_normal.png"
    },
    {
      "uri": "textures/claw_machine_01.glass_baseColor.png"
    },
    {
      "uri": "textures/claw_machine_01.glass_metallicRoughness.png"
    },
    {
      "uri": "textures/claw_machine_01.glass_normal.png"
    }
  ],
  "materials": [
    {
      "doubleSided": true,
      "name": "FigureBox",
      "pbrMetallicRoughness": {
        "baseColorTexture": {
          "index": 0
        },
        "metallicFactor": 0.0,
        "roughnessFactor": 0.8211145618000169
      }
    },
    {
      "doubleSided": true,
      "emissiveFactor": [
        1.0,
        1.0,
        1.0
      ],
      "emissiveTexture": {
        "index": 3
      },
      "name": "claw_machine_01",
      "normalTexture": {
        "index": 4
      },
      "pbrMetallicRoughness": {
        "baseColorTexture": {
          "index": 1
        },
        "metallicRoughnessTexture": {
          "index": 2
        }
      }
    },
    {
      "alphaMode": "BLEND",
      "doubleSided": true,
      "name": "claw_machine_01.glass",
      "normalTexture": {
        "index": 7
      },
      "pbrMetallicRoughness": {
        "baseColorFactor": [
          1.0,
          1.0,
          1.0,
          0.5
        ],
        "baseColorTexture": {
          "index": 5
        },
        "metallicFactor": 0.0,
        "metallicRoughnessTexture": {
          "index": 6
        }
      }
    }
  ],
  "meshes": [
    {
      "name": "FigureBox1_FigureBox_0",
      "primitives": [
        {
          "attributes": {
            "NORMAL": 1,
            "POSITION": 0,
            "TEXCOORD_0": 2
          },
          "indices": 3,
          "material": 0,
          "mode": 4
        }
      ]
    },
    {
      "name": "FigureBox2_FigureBox_0",
      "primitives": [
        {
          "attributes": {
            "NORMAL": 5,
            "POSITION": 4,
            "TEXCOORD_0": 6
          },
          "indices": 7,
          "material": 0,
          "mode": 4
        }
      ]
    },
    {
      "name": "claw_machine_01_claw_machine_01_0",
      "primitives": [
        {
          "attributes": {
            "NORMAL": 9,
            "POSITION": 8,
            "TANGENT": 10,
            "TEXCOORD_0": 11,
            "TEXCOORD_1": 12,
            "TEXCOORD_2": 13,
            "TEXCOORD_3": 14
          },
          "indices": 15,
          "material": 1,
          "mode": 4
        }
      ]
    },
    {
      "name": "claw_machine_01_claw_machine_01.glass_0",
      "primitives": [
        {
          "attributes": {
            "NORMAL": 17,
            "POSITION": 16,
            "TANGENT": 18,
            "TEXCOORD_0": 19,
            "TEXCOORD_1": 20,
            "TEXCOORD_2": 21
          },
          "indices": 22,
          "material": 2,
          "mode": 4
        }
      ]
    }
  ],
  "nodes": [
    {
      "children": [
        1
      ],
      "matrix": [
        1.0,
        0.0,
        0.0,
        0.0,
        0.0,
        2.220446049250313e-16,
        -1.0,
        0.0,
        0.0,
        1.0,
        2.220446049250313e-16,
        0.0,
        0.0,
        0.0,
        0.0,
        1.0
      ],
      "name": "Sketchfab_model"
    },
    {
      "children": [
        2
      ],
      "matrix": [
        0.009999999776482582,
        0.0,
        0.0,
        0.0,
        0.0,
        0.0,
        0.009999999776482582,
        0.0,
        0.0,
        -0.009999999776482582,
        0.0,
        0.0,
        0.0,
        0.0,
        0.0,
        1.0
      ],
      "name": "5df22b52472f4705820752656a850c32.fbx"
    },
    {
      "children": [
        3,
        5,
        7
      ],
      "name": "RootNode"
    },
    {
      "children": [
        4
      ],
      "matrix": [
        100.0,
        0.0,
        0.0,
        0.0,
        -0.0,
        -1.629206793918314e-05,
        -99.99999999999868,
        0.0,
        0.0,
        99.99999999999868,
        -1.629206793918314e-05,
        0.0,
        -137.42373657226563,
        117.29920959472656,
        -31.45318031311035,
        1.0
      ],
      "name": "FigureBox1"
    },
    {
      "mesh": 0,
      "name": "FigureBox1_FigureBox_0"
    },
    {
      "children": [
        6
      ],
      "matrix": [
        100.0,
        0.0,
        0.0,
        0.0,
        -0.0,
        -1.629206793918314e-05,
        -99.99999999999868,
        0.0,
        0.0,
        99.99999999999868,
        -1.629206793918314e-05,
        0.0,
        -124.95736694335938,
        97.52268981933594,
        10.168499946594238,
        1.0
      ],
      "name": "FigureBox2"
    },
    {
      "mesh": 1,
      "name": "FigureBox2_FigureBox_0"
    },
    {
      "children": [
        8,
        9
      ],
      "matrix": [
        100.0,
        0.0,
        0.0,
        0.0,
        -0.0,
        -1.629206793918314e-05,
        -99.99999999999868,
        0.0,
        0.0,
        99.99999999999868,
        -1.629206793918314e-05,
        0.0,
        -115.30401611328125,
        0.0,
        0.0,
        1.0
      ],
      "name": "claw_machine_01"
    },
    {
      "mesh": 2,
      "name": "claw_machine_01_claw_machine_01_0"
    },
    {
      "mesh": 3,
      "name": "claw_machine_01_claw_machine_01.glass_0"
    }
  ],
  "samplers": [
    {
      "magFilter": 9729,
      "minFilter": 9987,
      "wrapS": 10497,
      "wrapT": 10497
    }
  ],
  "scene": 0,
  "scenes": [
    {
      "name": "Sketchfab_Scene",
      "nodes": [
        0
      ]
    }
  ],
  "textures": [
    {
      "sampler": 0,
      "source": 0
    },
    {
      "sampler": 0,
      "source": 1
    },
    {
      "sampler": 0,
      "source": 2
    },
    {
      "sampler": 0,
      "source": 3
    },
    {
      "sampler": 0,
      "source": 4
    },
    {
      "sampler": 0,
      "source": 5
    },
    {
      "sampler": 0,
      "source": 6
    },
    {
      "sampler": 0,
      "source": 7
    }
  ]
}
