{
  "accessors": [
    {
      "bufferView": 2,
      "componentType": 5126,
      "count": 42,
      "max": [
        1.0,
        1.0000004768371582,
        1.0
      ],
      "min": [
        -1.0,
        -1.0,
        -1.0
      ],
      "type": "VEC3"
    },
    {
      "bufferView": 2,
      "byteOffset": 504,
      "componentType": 5126,
      "count": 42,
      "max": [
        0.5773533582687378,
        0.9045350551605225,
        0.5773534178733826
      ],
      "min": [
        -0.5773533582687378,
        -0.5773503184318542,
        -0.5773530006408691
      ],
      "type": "VEC3"
    },
    {
      "bufferView": 1,
      "componentType": 5126,
      "count": 42,
      "max": [
        0.9913193583488464,
        1.0
      ],
      "min": [
        0.008680582046508789,
        0.0
      ],
      "type": "VEC2"
    },
    {
      "bufferView": 0,
      "componentType": 5125,
      "count": 84,
      "type": "SCALAR"
    },
    {
      "bufferView": 2,
      "byteOffset": 1008,
      "componentType": 5126,
      "count": 407,
      "max": [
        1.2148146629333496,
        24.991039276123047,
        2.354978561401367
      ],
      "min": [
        -1.2148146629333496,
        -37.33780288696289,
        -2.9044442176818848
      ],
      "type": "VEC3"
    },
    {
      "bufferView": 2,
      "byteOffset": 5892,
      "componentType": 5126,
      "count": 407,
      "max": [
        1.0,
        1.0,
        0.999787449836731
      ],
      "min": [
        -1.0,
        -1.0,
        -1.0
      ],
      "type": "VEC3"
    },
    {
      "bufferView": 1,
      "byteOffset": 336,
      "componentType": 5126,
      "count": 407,
      "max": [
        0.9854446053504944,
        0.9828713536262512
      ],
      "min": [
        -0.04286028444766998,
        0.0005448912852443755
      ],
      "type": "VEC2"
    },
    {
      "bufferView": 0,
      "byteOffset": 336,
      "componentType": 5125,
      "count": 1626,
      "type": "SCALAR"
    },
    {
      "bufferView": 2,
      "byteOffset": 10776,
      "componentType": 5126,
      "count": 552,
      "max": [
        1.128022313117981,
        28.366436004638672,
        1.4477741718292236
      ],
      "min": [
        -1.0908643007278442,
        1.1165258884429932,
        -1.6871896982192993
      ],
      "type": "VEC3"
    },
    {
      "bufferView": 2,
      "byteOffset": 17400,
      "componentType": 5126,
      "count": 552,
      "max": [
        1.0,
        0.9996203780174255,
        0.9999991059303284
      ],
      "min": [
        -1.0,
        -0.9043362140655518,
        -0.9999990463256836
      ],
      "type": "VEC3"
    },
    {
      "bufferView": 1,
      "byteOffset": 3592,
      "componentType": 5126,
      "count": 552,
      "max": [
        0.9592136144638062,
        0.8839272260665894
      ],
      "min": [
        0.17639917135238647,
        0.03549264371395111
      ],
      "type": "VEC2"
    },
    {
      "bufferView": 0,
      "byteOffset": 6840,
      "componentType": 5125,
      "count": 2682,
      "type": "SCALAR"
    },
    {
      "bufferView": 2,
      "byteOffset": 24024,
      "componentType": 5126,
      "count": 83,
      "max": [
        1.5232946872711182,
        2.6256909370422363,
        -1.0736452341079712
      ],
      "min": [
        -1.52329421043396,
        -7.096083164215088,
        -2.1135683059692383
      ],
      "type": "VEC3"
    },
    {
      "bufferView": 2,
      "byteOffset": 25020,
      "componentType": 5126,
      "count": 83,
      "max": [
        0.86502605676651,
        0.9733637571334839,
        0.9733638167381287
      ],
      "min": [
        -0.86502605676651,
        -0.9733639359474182,
        -0.9733638167381287
      ],
      "type": "VEC3"
    },
    {
      "bufferView": 1,
      "byteOffset": 8008,
      "componentType": 5126,
      "count": 83,
      "max": [
        1.0007566213607788,
        0.9961420297622681
      ],
      "min": [
        -0.0012748661683872342,
        0.005992680788040161
      ],
      "type": "VEC2"
    },
    {
      "bufferView": 0,
      "byteOffset": 17568,
      "componentType": 5125,
      "count": 228,
      "type": "SCALAR"
    },
    {
      "bufferView": 2,
      "byteOffset": 26016,
      "componentType": 5126,
      "count": 30,
      "max": [
        0.45074111223220825,
        -10.356735229492188,
        -2.1223113536834717
      ],
      "min": [
        -0.45074111223220825,
        -15.070779800415039,
        -2.5537664890289307
      ],
      "type": "VEC3"
    },
    {
      "bufferView": 2,
      "byteOffset": 26376,
      "componentType": 5126,
      "count": 30,
      "max": [
        0.8402811288833618,
        0.8708169460296631,
        0.8789305686950684
      ],
      "min": [
        -0.8402811288833618,
        -0.8708176016807556,
        -0.8789308667182922
      ],
      "type": "VEC3"
    },
    {
      "bufferView": 1,
      "byteOffset": 8672,
      "componentType": 5126,
      "count": 30,
      "max": [
        0.8068056106567383,
        0.28629961609840393
      ],
      "min": [
        0.2431679666042328,
        0.09633931517601013
      ],
      "type": "VEC2"
    },
    {
      "bufferView": 0,
      "byteOffset": 18480,
      "componentType": 5125,
      "count": 60,
      "type": "SCALAR"
    }
  ],
  "asset": {
    "extras": {
      "author": "Daniele Cocchi (https://sketchfab.com/Cocchi)",
      "license": "CC-BY-4.0 (http://creativecommons.org/licenses/by/4.0/)",
      "source": "https://sketchfab.com/3d-models/arcade-the-real-ghostbusters-0f973fe6daa14087b352366b58321602",
      "title": "Arcade The Real Ghostbusters"
    },
    "generator": "Sketchfab-16.75.0",
    "version": "2.0"
  },
  "bufferViews": [
    {
      "buffer": 0,
      "byteLength": 18720,
      "name": "floatBufferViews",
      "target": 34963
    },
    {
      "buffer": 0,
      "byteLength": 8912,
      "byteOffset": 18720,
      "byteStride": 8,
      "name": "floatBufferViews",
      "target": 34962
    },
    {
      "buffer": 0,
      "byteLength": 26736,
      "byteOffset": 27632,
      "byteStride": 12,
      "name": "floatBufferViews",
      "target": 34962
    }
  ],
  "buffers": [
    {
      "byteLength": 54368,
      "uri": "scene.bin"
    }
  ],
  "images": [
    {
      "uri": "textures/Material.002_baseColor.png"
    },
    {
      "uri": "textures/Material_baseColor.jpeg"
    },
    {
      "uri": "textures/Material.001_baseColor.jpeg"
    },
    {
      "uri": "textures/Material.003_baseColor.jpeg"
    },
    {
      "uri": "textures/Material.004_baseColor.jpeg"
    }
  ],
  "materials": [
    {
      "doubleSided": true,
      "name": "Material.002",
      "pbrMetallicRoughness": {
        "baseColorTexture": {
          "index": 0
        },
        "metallicFactor": 0.0,
        "roughnessFactor": 0.8211145618000169
      }
    },
    {
      "doubleSided": true,
      "name": "Material",
      "pbrMetallicRoughness": {
        "baseColorTexture": {
          "index": 1
        },
        "metallicFactor": 0.0,
        "roughnessFactor": 0.8211145618000169
      }
    },
    {
      "doubleSided": true,
      "name": "Material.001",
      "pbrMetallicRoughness": {
        "baseColorTexture": {
          "index": 2
        },
        "metallicFactor": 0.0,
        "roughnessFactor": 0.8211145618000169
      }
    },
    {
      "doubleSided": true,
      "name": "Material.003",
      "pbrMetallicRoughness": {
        "baseColorTexture": {
          "index": 3
        },
        "metallicFactor": 0.0,
        "roughnessFactor": 0.8211145618000169
      }
    },
    {
      "doubleSided": true,
      "name": "Material.004",
      "pbrMetallicRoughness": {
        "baseColorTexture": {
          "index": 4
        },
        "metallicFactor": 0.0,
        "roughnessFactor": 0.8211145618000169
      }
    }
  ],
  "meshes": [
    {
      "name": "MSH_Arcade_TRGB_Material.002_0",
      "primitives": [
        {
          "attributes": {
            "NORMAL": 1,
            "POSITION": 0,
            "TEXCOORD_0": 2
          },
          "indices": 3,
          "material": 0,
          "mode": 4
        }
      ]
    },
    {
      "name": "MSH_Arcade_TRGB_Material_0",
      "primitives": [
        {
          "attributes": {
            "NORMAL": 5,
            "POSITION": 4,
            "TEXCOORD_0": 6
          },
          "indices": 7,
          "material": 1,
          "mode": 4
        }
      ]
    },
    {
      "name": "MSH_Arcade_TRGB_Material.001_0",
      "primitives": [
        {
          "attributes": {
            "NORMAL": 9,
            "POSITION": 8,
            "TEXCOORD_0": 10
          },
          "indices": 11,
          "material": 2,
          "mode": 4
        }
      ]
    },
    {
      "name": "MSH_Arcade_TRGB_Material.003_0",
      "primitives": [
        {
          "attributes": {
            "NORMAL": 13,
            "POSITION": 12,
            "TEXCOORD_0": 14
          },
          "indices": 15,
          "material": 3,
          "mode": 4
        }
      ]
    },
    {
      "name": "MSH_Arcade_TRGB_Material.004_0",
      "primitives": [
        {
          "attributes": {
            "NORMAL": 17,
            "POSITION": 16,
            "TEXCOORD_0": 18
          },
          "indices": 19,
          "material": 4,
          "mode": 4
        }
      ]
    }
  ],
  "nodes": [
    {
      "children": [
        1
      ],
      "matrix": [
        1.0,
        0.0,
        0.0,
        0.0,
        0.0,
        2.220446049250313e-16,
        -1.0,
        0.0,
        0.0,
        1.0,
        2.220446049250313e-16,
        0.0,
        0.0,
        0.0,
        0.0,
        1.0
      ],
      "name": "Sketchfab_model"
    },
    {
      "children": [
        2
      ],
      "matrix": [
        0.009999999776482582,
        0.0,
        0.0,
        0.0,
        0.0,
        0.0,
        0.009999999776482582,
        0.0,
        0.0,
        -0.009999999776482582,
        0.0,
        0.0,
        0.0,
        0.0,
        0.0,
        1.0
      ],
      "name": "a994c1e6cc11426c9c086dd823830a40.fbx"
    },
    {
      "children": [
        3
      ],
      "name": "RootNode"
    },
    {
      "children": [
        4,
        5,
        6,
        7,
        8
      ],
      "matrix": [
        540.0,
        0.0,
        0.0,
        0.0,
        0.0,
        38.18377613913378,
        -38.18377780819977,
        0.0,
        0.0,
        417.19301001810607,
        417.1929917820199,
        0.0,
        -400.0,
        1960.872802734375,
        -310.6634521484375,
        1.0
      ],
      "name": "MSH_Arcade_TRGB"
    },
    {
      "mesh": 0,
      "name": "MSH_Arcade_TRGB_Material.002_0"
    },
    {
      "mesh": 1,
      "name": "MSH_Arcade_TRGB_Material_0"
    },
    {
      "mesh": 2,
      "name": "MSH_Arcade_TRGB_Material.001_0"
    },
    {
      "mesh": 3,
      "name": "MSH_Arcade_TRGB_Material.003_0"
    },
    {
      "mesh": 4,
      "name": "MSH_Arcade_TRGB_Material.004_0"
    }
  ],
  "samplers": [
    {
      "magFilter": 9729,
      "minFilter": 9987,
      "wrapS": 10497,
      "wrapT": 10497
    }
  ],
  "scene": 0,
  "scenes": [
    {
      "name": "Sketchfab_Scene",
      "nodes": [
        0
      ]
    }
  ],
  "textures": [
    {
      "sampler": 0,
      "source": 0
    },
    {
      "sampler": 0,
      "source": 1
    },
    {
      "sampler": 0,
      "source": 2
    },
    {
      "sampler": 0,
      "source": 3
    },
    {
      "sampler": 0,
      "source": 4
    }
  ]
}
